<svg width="9" height="9" viewBox="0 0 9 9" fill="none" xmlns="http://www.w3.org/2000/svg">
<path d="M4.12351 6.07L1.72551 3.329C1.44251 3.0065 1.67251 2.5 2.10201 2.5H6.89801C6.99413 2.49992 7.08824 2.52754 7.16906 2.57957C7.24989 2.6316 7.314 2.70582 7.35373 2.79335C7.39346 2.88087 7.40711 2.978 7.39306 3.07309C7.37901 3.16818 7.33785 3.2572 7.27451 3.3295L4.87651 6.0695C4.82958 6.1232 4.7717 6.16625 4.70676 6.19574C4.64182 6.22523 4.57133 6.24049 4.50001 6.24049C4.42868 6.24049 4.35819 6.22523 4.29325 6.19574C4.22831 6.16625 4.17044 6.1232 4.12351 6.0695V6.07Z" fill="#101540"/>
</svg>
