<svg width="33" height="33" viewBox="0 0 33 33" fill="none" xmlns="http://www.w3.org/2000/svg">
<path d="M29.574 13.8887H28.5V13.8333H16.5V19.1667H24.0353C22.936 22.2713 19.982 24.5 16.5 24.5C12.082 24.5 8.49996 20.918 8.49996 16.5C8.49996 12.082 12.082 8.49999 16.5 8.49999C18.5393 8.49999 20.3946 9.26932 21.8073 10.526L25.5786 6.75466C23.1973 4.53532 20.012 3.16666 16.5 3.16666C9.13663 3.16666 3.16663 9.13666 3.16663 16.5C3.16663 23.8633 9.13663 29.8333 16.5 29.8333C23.8633 29.8333 29.8333 23.8633 29.8333 16.5C29.8333 15.606 29.7413 14.7333 29.574 13.8887Z" fill="#FFC107"/>
<path d="M4.70398 10.294L9.08465 13.5067C10.27 10.572 13.1406 8.49999 16.5 8.49999C18.5393 8.49999 20.3946 9.26932 21.8073 10.526L25.5786 6.75466C23.1973 4.53532 20.012 3.16666 16.5 3.16666C11.3786 3.16666 6.93731 6.05799 4.70398 10.294Z" fill="#FF3D00"/>
<path d="M16.5 29.8333C19.944 29.8333 23.0733 28.5153 25.4393 26.372L21.3127 22.88C19.929 23.9323 18.2383 24.5014 16.5 24.5C13.032 24.5 10.0873 22.2887 8.978 19.2027L4.63 22.5527C6.83667 26.8707 11.318 29.8333 16.5 29.8333Z" fill="#4CAF50"/>
<path d="M29.574 13.8887H28.5V13.8333H16.5V19.1667H24.0353C23.5095 20.6443 22.5622 21.9355 21.3107 22.8807L21.3127 22.8793L25.4393 26.3713C25.1473 26.6367 29.8333 23.1667 29.8333 16.5C29.8333 15.606 29.7413 14.7333 29.574 13.8887Z" fill="#1976D2"/>
</svg>
